<svg width="720" height="360" viewBox="0 0 720 360" fill="none" xmlns="http://www.w3.org/2000/svg">
  <rect width="720" height="360" rx="36" fill="#f0fdf4"/>
  <rect x="56" y="68" width="224" height="224" rx="52" fill="#16a34a"/>
  <path d="M106 235C124 186 162 146 225 115" stroke="#ecfdf5" stroke-width="18" stroke-linecap="round"/>
  <path d="M128 208C145 210 163 218 180 233" stroke="#bbf7d0" stroke-width="13" stroke-linecap="round"/>
  <path d="M150 177C168 179 188 187 206 203" stroke="#bbf7d0" stroke-width="13" stroke-linecap="round"/>
  <path d="M181 145C197 146 213 153 228 166" stroke="#bbf7d0" stroke-width="13" stroke-linecap="round"/>
  <path d="M99 249H238" stroke="#052e16" stroke-width="10" stroke-linecap="round" opacity="0.55"/>
  <circle cx="120" cy="249" r="11" fill="#ecfdf5"/>
  <circle cx="169" cy="249" r="11" fill="#ecfdf5"/>
  <circle cx="219" cy="249" r="11" fill="#ecfdf5"/>
  <text x="324" y="164" fill="#052e16" font-family="Inter, Arial, sans-serif" font-size="58" font-weight="800">AgriCane</text>
  <text x="326" y="216" fill="#166534" font-family="Inter, Arial, sans-serif" font-size="28" font-weight="600">Sugarcane Intelligence Platform</text>
  <path d="M330 242H604" stroke="#86efac" stroke-width="8" stroke-linecap="round"/>
</svg>
